<svg width="500" height="500" viewBox="0 0 500 500" fill="none" xmlns="http://www.w3.org/2000/svg">
<g clip-path="url(#clip0)">
<path d="M205.449 116.84L207.158 147.357C226.689 123.757 252.324 111.957 284.062 111.957C339.076 111.957 367.07 143.451 368.047 206.439V381H308.721V209.857C308.721 193.093 305.059 180.723 297.734 172.748C290.573 164.61 278.773 160.541 262.334 160.541C238.408 160.541 220.586 171.365 208.867 193.012V381H149.541V116.84H205.449Z" fill="#BDB6FF"/>
<path d="M193.041 129.84L195.238 160.357C214.118 136.757 239.428 124.957 271.166 124.957C299.161 124.957 319.994 133.176 333.666 149.615C347.338 166.054 354.337 190.631 354.662 223.346V394H284.105V225.055C284.105 210.081 280.85 199.257 274.34 192.584C267.829 185.748 257.006 182.33 241.869 182.33C222.012 182.33 207.12 190.794 197.191 207.721V394H126.635V129.84H193.041Z" fill="#7264F7"/>
</g>
<defs>
<clipPath id="clip0">
<rect width="500" height="500" fill="white"/>
</clipPath>
</defs>
</svg>
